# xmcd
#
# Track frame offsets:
#  150
#  43518
#  73892
#  97662
#  138126
#  164695
#  182306
#  202890
#  227233
#  247735
#  262131
#
# Disc length: 3912 seconds
#
# Revision: 0
# Processed by: cddbd v1.5.1PL0 Copyright (c) Steve Scherf et al.
# Submitted via: AltoMP3_Maker 3.0
#
DISCID=8d0f460b
DTITLE=Clark, Ely, Hiatt, Lovett - Live at McCarter Theater Princeton, NJ [CD2]
DYEAR=1900
DGENRE=
TTITLE0=My Baby Don't Tolerate (LL)
TTITLE1=Let Him Roll (GC)
TTITLE2=My Eyes Got Lucky (JE)
TTITLE3=Crossing Muddy Waters (JH)
TTITLE4=Step Inside This House (LL)
TTITLE5=Ain't Gonna Be Treated This Way (All)
TTITLE6=Dublin Blues (GC)
TTITLE7=Streets Of Sin (JE)
TTITLE8=Have a Little Faith In Me (JH)
TTITLE9=If I Had a Boat (LL)
TTITLE10=This Land Is Your Land (All)
EXTD=
EXTT0=
EXTT1=
EXTT2=
EXTT3=
EXTT4=
EXTT5=
EXTT6=
EXTT7=
EXTT8=
EXTT9=
EXTT10=
PLAYORDER=
